<?xml version="1.0" encoding="UTF-8" standalone="no"?>
<!-- Uploaded to: SVG Repo, www.svgrepo.com, Transformed by: SVG Repo Mixer Tools -->

<svg
   width="800px"
   height="800px"
   viewBox="0 0 24 24"
   fill="none"
   version="1.1"
   id="svg1"
   sodipodi:docname="phone.svg"
   inkscape:version="1.3.2 (091e20e, 2023-11-25, custom)"
   xmlns:inkscape="http://www.inkscape.org/namespaces/inkscape"
   xmlns:sodipodi="http://sodipodi.sourceforge.net/DTD/sodipodi-0.dtd"
   xmlns="http://www.w3.org/2000/svg"
   xmlns:svg="http://www.w3.org/2000/svg">
  <defs
     id="defs1" />
  <sodipodi:namedview
     id="namedview1"
     pagecolor="#ffffff"
     bordercolor="#000000"
     borderopacity="0.25"
     inkscape:showpageshadow="2"
     inkscape:pageopacity="0.0"
     inkscape:pagecheckerboard="0"
     inkscape:deskcolor="#d1d1d1"
     inkscape:zoom="1.37375"
     inkscape:cx="399.63603"
     inkscape:cy="399.63603"
     inkscape:window-width="2560"
     inkscape:window-height="1334"
     inkscape:window-x="-11"
     inkscape:window-y="-11"
     inkscape:window-maximized="1"
     inkscape:current-layer="svg1" />
  <g
     id="SVGRepo_bgCarrier"
     stroke-width="0" />
  <g
     id="SVGRepo_tracerCarrier"
     stroke-linecap="round"
     stroke-linejoin="round" />
  <g
     id="SVGRepo_iconCarrier">
    <path
       d="M16.1007 13.359L15.5719 12.8272H15.5719L16.1007 13.359ZM16.5562 12.9062L17.085 13.438H17.085L16.5562 12.9062ZM18.9728 12.5894L18.6146 13.2483L18.9728 12.5894ZM20.8833 13.628L20.5251 14.2869L20.8833 13.628ZM21.4217 16.883L21.9505 17.4148L21.4217 16.883ZM20.0011 18.2954L19.4723 17.7636L20.0011 18.2954ZM18.6763 18.9651L18.7459 19.7119H18.7459L18.6763 18.9651ZM8.81536 14.7266L9.34418 14.1947L8.81536 14.7266ZM4.00289 5.74561L3.2541 5.78816L3.2541 5.78816L4.00289 5.74561ZM10.4775 7.19738L11.0063 7.72922H11.0063L10.4775 7.19738ZM10.6342 4.54348L11.2346 4.09401L10.6342 4.54348ZM9.37326 2.85908L8.77286 3.30855V3.30855L9.37326 2.85908ZM6.26145 2.57483L6.79027 3.10667H6.79027L6.26145 2.57483ZM4.69185 4.13552L4.16303 3.60368H4.16303L4.69185 4.13552ZM12.0631 11.4972L12.5919 10.9654L12.0631 11.4972ZM16.6295 13.8909L17.085 13.438L16.0273 12.3743L15.5719 12.8272L16.6295 13.8909ZM18.6146 13.2483L20.5251 14.2869L21.2415 12.9691L19.331 11.9305L18.6146 13.2483ZM20.8929 16.3511L19.4723 17.7636L20.5299 18.8273L21.9505 17.4148L20.8929 16.3511ZM18.6067 18.2184C17.1568 18.3535 13.4056 18.2331 9.34418 14.1947L8.28654 15.2584C12.7186 19.6653 16.9369 19.8805 18.7459 19.7119L18.6067 18.2184ZM9.34418 14.1947C5.4728 10.3453 4.83151 7.10765 4.75168 5.70305L3.2541 5.78816C3.35456 7.55599 4.14863 11.144 8.28654 15.2584L9.34418 14.1947ZM10.7195 8.01441L11.0063 7.72922L9.9487 6.66555L9.66189 6.95073L10.7195 8.01441ZM11.2346 4.09401L9.97365 2.40961L8.77286 3.30855L10.0338 4.99296L11.2346 4.09401ZM5.73263 2.04299L4.16303 3.60368L5.22067 4.66736L6.79027 3.10667L5.73263 2.04299ZM10.1907 7.48257C9.66189 6.95073 9.66117 6.95144 9.66045 6.95216C9.66021 6.9524 9.65949 6.95313 9.659 6.95362C9.65802 6.95461 9.65702 6.95561 9.65601 6.95664C9.65398 6.95871 9.65188 6.96086 9.64972 6.9631C9.64539 6.96759 9.64081 6.97245 9.63599 6.97769C9.62634 6.98816 9.61575 7.00014 9.60441 7.01367C9.58174 7.04072 9.55605 7.07403 9.52905 7.11388C9.47492 7.19377 9.41594 7.2994 9.36589 7.43224C9.26376 7.70329 9.20901 8.0606 9.27765 8.50305C9.41189 9.36833 10.0078 10.5113 11.5343 12.0291L12.5919 10.9654C11.1634 9.54499 10.8231 8.68059 10.7599 8.27309C10.7298 8.07916 10.761 7.98371 10.7696 7.96111C10.7748 7.94713 10.7773 7.9457 10.7709 7.95525C10.7677 7.95992 10.7624 7.96723 10.7541 7.97708C10.75 7.98201 10.7451 7.98759 10.7394 7.99381C10.7365 7.99692 10.7335 8.00019 10.7301 8.00362C10.7285 8.00534 10.7268 8.00709 10.725 8.00889C10.7241 8.00979 10.7232 8.0107 10.7223 8.01162C10.7219 8.01208 10.7212 8.01278 10.7209 8.01301C10.7202 8.01371 10.7195 8.01441 10.1907 7.48257ZM11.5343 12.0291C13.0613 13.5474 14.2096 14.1383 15.0763 14.2713C15.5192 14.3392 15.8763 14.285 16.1472 14.1841C16.28 14.1346 16.3858 14.0763 16.4658 14.0227C16.5058 13.9959 16.5392 13.9704 16.5663 13.9479C16.5799 13.9367 16.5919 13.9262 16.6024 13.9166C16.6077 13.9118 16.6126 13.9073 16.6171 13.903C16.6194 13.9008 16.6215 13.8987 16.6236 13.8967C16.6246 13.8957 16.6256 13.8947 16.6266 13.8937C16.6271 13.8932 16.6279 13.8925 16.6281 13.8923C16.6288 13.8916 16.6295 13.8909 16.1007 13.359C15.5719 12.8272 15.5726 12.8265 15.5733 12.8258C15.5735 12.8256 15.5742 12.8249 15.5747 12.8244C15.5756 12.8235 15.5765 12.8226 15.5774 12.8217C15.5793 12.82 15.581 12.8183 15.5827 12.8166C15.5862 12.8133 15.5895 12.8103 15.5926 12.8074C15.5988 12.8018 15.6044 12.7969 15.6094 12.7929C15.6192 12.7847 15.6265 12.7795 15.631 12.7764C15.6403 12.7702 15.6384 12.773 15.6236 12.7785C15.5991 12.7876 15.501 12.8189 15.3038 12.7886C14.8905 12.7253 14.02 12.3853 12.5919 10.9654L11.5343 12.0291ZM9.97365 2.40961C8.95434 1.04802 6.94996 0.83257 5.73263 2.04299L6.79027 3.10667C7.32195 2.578 8.26623 2.63181 8.77286 3.30855L9.97365 2.40961ZM4.75168 5.70305C4.73201 5.35694 4.89075 4.9954 5.22067 4.66736L4.16303 3.60368C3.62571 4.13795 3.20329 4.89425 3.2541 5.78816L4.75168 5.70305ZM19.4723 17.7636C19.1975 18.0369 18.9029 18.1908 18.6067 18.2184L18.7459 19.7119C19.4805 19.6434 20.0824 19.2723 20.5299 18.8273L19.4723 17.7636ZM11.0063 7.72922C11.9908 6.7503 12.064 5.2019 11.2346 4.09401L10.0338 4.99295C10.4373 5.53193 10.3773 6.23938 9.9487 6.66555L11.0063 7.72922ZM20.5251 14.2869C21.3429 14.7315 21.4703 15.7769 20.8929 16.3511L21.9505 17.4148C23.2908 16.0821 22.8775 13.8584 21.2415 12.9691L20.5251 14.2869ZM17.085 13.438C17.469 13.0562 18.0871 12.9616 18.6146 13.2483L19.331 11.9305C18.2474 11.3414 16.9026 11.5041 16.0273 12.3743L17.085 13.438Z"
       fill="#000000"
       id="path1" />
  </g>
  <path
     style="fill:#ffffff;stroke-width:0.727934"
     d="M 573.61237,657.19807 C 542.83846,654.97735 509.67985,648.26888 478.98089,638.05272 407.80342,614.36593 342.0211,572.45179 279.62669,511.03137 221.13126,453.44908 178.66997,396.31884 148.95263,335.21383 c -20.35898,-41.86229 -32.95325,-82.43755 -38.37526,-123.6345 -4.24924,-32.28613 -0.45108,-51.53044 14.68555,-74.40799 3.8002,-5.74364 9.87174,-12.22605 37.00285,-39.506937 18.9933,-19.098146 34.9616,-34.527111 38.49535,-37.19515 10.88234,-8.216356 24.36657,-14.249931 37.8013,-16.914351 8.58018,-1.701652 25.16176,-1.688884 33.93204,0.02613 18.68155,3.653138 35.28456,12.219569 48.81647,25.18716 8.83339,8.465015 55.13161,69.996838 60.65015,80.606008 7.88741,15.1632 10.7074,26.59424 10.73831,43.52844 0.0232,12.6984 -0.73694,17.94684 -4.10502,28.34412 -4.45543,13.75392 -11.3939,24.89143 -22.9742,36.87778 l -7.67436,7.94344 0.39507,6.72943 c 0.46721,7.95805 2.07159,13.19704 7.41093,24.19986 9.15443,18.8646 24.73411,39.14139 49.13232,63.9452 27.89143,28.35509 50.93542,46.73414 71.97803,57.40706 10.77748,5.4664 18.46783,7.90341 26.49068,8.39472 l 6.34646,0.38864 9.6681,-9.32676 c 12.07879,-11.65236 18.90563,-16.74945 29.22394,-21.81935 13.77275,-6.76722 25.06296,-9.33605 40.86271,-9.29738 15.36097,0.0376 27.78307,2.98957 41.48386,9.85819 15.12507,7.58266 71.92215,38.95604 76.44153,42.22452 7.70585,5.57298 12.28984,9.73578 17.38831,15.79067 15.22009,18.07517 23.01205,39.04817 23.01205,61.93966 0,22.66127 -7.72284,42.64374 -23.30326,60.29606 -8.1986,9.28887 -58.92394,58.41681 -64.04888,62.03191 -15.6251,11.02187 -30.01874,16.37654 -48.53291,18.05509 -7.91403,0.7175 -39.80959,0.92399 -48.28238,0.31257 z m 38.18281,-49.02685 c 13.31346,-0.84926 20.20861,-2.74077 27.72742,-7.60631 2.67734,-1.73256 15.37501,-13.82632 33.20055,-31.62154 24.79909,-24.75689 29.18374,-29.45614 31.12714,-33.36055 3.21715,-6.46343 4.42996,-11.85874 4.42996,-19.70711 0,-13.05733 -3.94365,-22.39067 -13.43625,-31.79928 -5.73137,-5.68065 -6.59823,-6.21616 -35.34609,-21.83545 -38.87796,-21.12319 -45.11606,-24.22323 -51.30865,-25.49798 -10.23765,-2.10745 -19.72066,-0.89145 -28.83235,3.69712 -4.3306,2.18085 -7.28007,4.58397 -15.23085,12.40952 l -9.86023,9.70492 -7.97068,-7.8014 c -7.12393,-6.97262 -6.14253,-5.71307 3.94855,5.0677 l 3.18804,3.40592 -2.10258,1.8455 c -3.29811,2.89482 -13.18233,7.58967 -19.57302,9.29688 -7.78575,2.07987 -23.37402,2.26633 -32.39308,0.38746 -32.26441,-6.72138 -65.10124,-27.25743 -107.20016,-67.04266 -39.44152,-37.27387 -67.78739,-76.0953 -78.01993,-106.85308 -4.14806,-12.46857 -5.14298,-18.51304 -5.06922,-30.79719 0.0581,-9.68393 0.28955,-11.65785 2.0457,-17.45085 2.19705,-7.24737 5.17578,-13.29518 8.58592,-17.43228 l 2.25224,-2.73236 7.00511,6.97881 c 3.8528,3.83834 7.32066,6.97881 7.70635,6.97881 0.38569,0 -2.53975,-3.25321 -6.50098,-7.22935 l -7.20223,-7.22935 6.56449,-6.9363 c 10.16073,-10.73621 14.05473,-19.46285 14.05473,-31.49736 0,-7.59471 -0.98952,-12.38712 -3.88366,-18.80918 -3.02438,-6.71104 -47.93153,-66.88331 -53.64531,-71.88076 -11.16704,-9.767023 -26.96568,-13.628398 -41.03627,-10.029747 -11.21696,2.868816 -11.8488,3.377638 -44.72428,36.016687 -16.55264,16.43359 -31.52373,31.8649 -33.26909,34.29179 -7.85649,10.92426 -9.72768,18.41776 -8.4392,33.79625 4.53771,54.15937 28.75206,116.29774 68.47972,175.7313 42.9025,64.18319 105.95881,128.2254 165.61353,168.20295 71.118,47.65965 149.58396,71.77387 219.11466,67.33847 z"
     id="path2"
     transform="scale(0.03)" />
</svg>
