<?xml version="1.0" encoding="UTF-8" standalone="no"?>
<!-- Uploaded to: SVG Repo, www.svgrepo.com, Generator: SVG Repo Mixer Tools -->

<svg
   width="800px"
   height="800px"
   viewBox="0 -4 32 32"
   version="1.1"
   id="svg1"
   sodipodi:docname="mail.svg"
   inkscape:version="1.3.2 (091e20e, 2023-11-25, custom)"
   xmlns:inkscape="http://www.inkscape.org/namespaces/inkscape"
   xmlns:sodipodi="http://sodipodi.sourceforge.net/DTD/sodipodi-0.dtd"
   xmlns="http://www.w3.org/2000/svg"
   xmlns:svg="http://www.w3.org/2000/svg"
   xmlns:sketch="http://www.bohemiancoding.com/sketch/ns">
  <sodipodi:namedview
     id="namedview1"
     pagecolor="#ffffff"
     bordercolor="#000000"
     borderopacity="0.25"
     inkscape:showpageshadow="2"
     inkscape:pageopacity="0.0"
     inkscape:pagecheckerboard="0"
     inkscape:deskcolor="#d1d1d1"
     inkscape:zoom="1.37375"
     inkscape:cx="399.63603"
     inkscape:cy="399.63603"
     inkscape:window-width="2560"
     inkscape:window-height="1334"
     inkscape:window-x="-11"
     inkscape:window-y="-11"
     inkscape:window-maximized="1"
     inkscape:current-layer="svg1" />
  <title
     id="title1">mail</title>
  <desc
     id="desc1">Created with Sketch Beta.</desc>
  <defs
     id="defs1" />
  <g
     id="Page-1"
     stroke="none"
     stroke-width="1"
     fill="none"
     fill-rule="evenodd"
     sketch:type="MSPage">
    <g
       id="Icon-Set"
       sketch:type="MSLayerGroup"
       transform="translate(-412.000000, -259.000000)"
       fill="#000000">
      <path
         d="M442,279 C442,279.203 441.961,279.395 441.905,279.578 L433,270 L442,263 L442,279 L442,279 Z M415.556,280.946 L424.58,271.33 L428,273.915 L431.272,271.314 L440.444,280.946 C440.301,280.979 415.699,280.979 415.556,280.946 L415.556,280.946 Z M414,279 L414,263 L423,270 L414.095,279.578 C414.039,279.395 414,279.203 414,279 L414,279 Z M441,261 L428,271 L415,261 L441,261 L441,261 Z M440,259 L416,259 C413.791,259 412,260.791 412,263 L412,279 C412,281.209 413.791,283 416,283 L440,283 C442.209,283 444,281.209 444,279 L444,263 C444,260.791 442.209,259 440,259 L440,259 Z"
         id="mail"
         sketch:type="MSShapeGroup" />
    </g>
  </g>
  <path
     style="fill:#ffffff;stroke-width:0.727934"
     d="M 90.991811,699.17992 C 66.469858,696.77468 44.389891,685.90837 27.463403,667.91541 11.361312,650.79879 2.4963836,630.27015 0.72869074,606.00546 c -0.96895221,-13.30057 -0.96895221,-398.71035 0,-412.01092 C 2.4963836,169.72985 11.361312,149.20121 27.463403,132.08459 42.580288,116.01524 60.393646,106.35056 83.348499,101.76399 89.593376,100.51621 104.40923,100.45496 400,100.45496 c 296.14385,0 310.41132,0.0593 317.01547,1.31673 19.58551,3.72922 37.12327,12.60439 51.04793,25.83335 18.84863,17.90696 29.3041,40.09362 31.21769,66.24449 0.89733,12.26315 0.89733,400.03779 0,412.30094 -1.91359,26.15087 -12.36906,48.33753 -31.21769,66.24449 -13.72557,13.03978 -30.50482,21.58897 -50.72706,25.84587 -5.3437,1.12488 -29.01452,1.22653 -313.3327,1.3457 -169.15378,0.0709 -310.0091,-0.11208 -313.011829,-0.40661 z M 673.96852,649.19831 c 20.49592,-0.26577 37.174,-0.72301 37.0624,-1.01609 -0.11159,-0.29308 -51.73499,-54.63786 -114.71866,-120.76618 l -114.51577,-120.23329 -3.04565,2.47987 c -9.94395,8.09674 -78.47695,62.40289 -78.75087,62.40289 -0.18204,0 -19.18211,-14.26282 -42.22238,-31.69516 -23.04027,-17.43234 -42.29245,-31.84745 -42.78263,-32.03357 -0.75582,-0.28699 -225.373522,238.14425 -226.062425,239.9648 -0.131814,0.34836 10.992539,0.72333 24.749775,0.83425 56.63293,0.45662 525.85511,0.50895 560.28621,0.0625 z M 163.78526,495.32186 C 224.84076,429.64809 274.89631,375.62609 275.01981,375.27297 275.22565,374.68439 51.897316,200.49616 50.219707,199.93681 c -0.49433,-0.16482 -0.662676,66.63577 -0.513658,203.82165 0.185153,170.45114 0.386472,204.63642 1.222124,207.52452 0.550251,1.90173 1.190946,3.455 1.423767,3.45171 0.232821,-0.003 50.37781,-53.73907 111.43332,-119.41283 z m 585.28655,115.96112 c 0.83567,-2.8881 1.03702,-37.07338 1.22213,-207.52452 0.14901,-137.18588 -0.0193,-203.98647 -0.51363,-203.82165 -1.65853,0.553 -225.00691,174.74382 -224.80012,175.32306 0.31578,0.88452 222.15066,239.46023 222.66785,239.47154 0.23287,0.005 0.87353,-1.5467 1.42377,-3.44843 z M 563.05732,275.19954 c 88.88081,-68.36618 161.71065,-124.59619 161.8441,-124.95557 0.14309,-0.38534 -133.13498,-0.65343 -324.84076,-0.65343 -178.79587,0 -325.072438,0.24567 -325.059037,0.54595 0.0496,1.11112 324.305637,249.89855 325.362347,249.63624 0.60054,-0.14907 73.81255,-56.207 162.69335,-124.57319 z"
     id="path1"
     transform="matrix(0.04,0,0,0.04,0,-4)" />
</svg>
